<!-- Copyright 2024 Jelly Terra. Use of the content is subject to the CC BY-NC-ND 4.0 license. -->

<svg width="50" height="50" viewBox="0 0 13.229166 13.229167" fill="#ff006a" xmlns="http://www.w3.org/2000/svg">
  <g>
    <path d="M 6.422171,0.00279863 A 6.6146279,6.6146279 0 0 0 0.88616673,3.3072704 L 2.031841,3.9687335 A 5.2917024,5.2917024 0 0 1 7.984102,1.503234 5.2917024,5.2917024 0 0 1 11.906241,6.6145846 5.2917024,5.2917024 0 0 1 7.984102,11.725936 5.2917024,5.2917024 0 0 1 2.031841,9.2604358 L 0.88616673,9.9218986 A 6.6146279,6.6146279 0 0 0 8.3265898,13.003773 6.6146279,6.6146279 0 0 0 13.229166,6.6145846 6.6146279,6.6146279 0 0 0 8.3265898,0.22539637 6.6146279,6.6146279 0 0 0 6.422171,0.00279863 Z M 6.7299064,2.6474872 A 3.968777,3.9687772 0 0 0 5.5873327,2.7810716 3.968777,3.9687772 0 0 0 2.6457609,6.6145846 3.968777,3.9687772 0 0 0 5.5873327,10.448098 3.968777,3.9687772 0 0 0 10.051561,8.5989731 L 8.9058866,7.9375103 A 2.6458512,2.6458512 0 0 1 5.9296912,9.17026 2.6458512,2.6458512 0 0 1 3.9686866,6.6145846 2.6458512,2.6458512 0 0 1 5.9296912,4.0589093 2.6458512,2.6458512 0 0 1 8.9058866,5.2916589 L 10.051561,4.6301962 A 3.968777,3.9687772 0 0 0 6.7299064,2.6474872 Z" />
  </g>
</svg>
