<!-- Copyright 2024 Jelly Terra. Use of the content is subject to the CC BY-NC-ND 4.0 license. -->

<svg width="200" height="200" viewBox="0 0 200 200" fill="#ff006a" xmlns="http://www.w3.org/2000/svg">
  <g>
    <path d="M 155.5992,0.06726777 A 66.520535,67.825366 0 0 0 110.73851,20.678635 66.520535,67.825366 0 0 0 100,100 L 188.12771,7.0679423 A 66.520535,67.825366 0 0 0 155.5992,0.06726777 Z m 5.86313,10.68301923 a 5.3690308,5.369022 0 0 1 5.08513,2.78007 5.3690308,5.369022 0 0 1 -2.11973,7.279235 5.3690308,5.369022 0 0 1 -7.28588,-2.097538 l 4.69448,-2.605831 -4.72667,2.54701 a 5.3690308,5.369022 0 0 1 2.16524,-7.264807 5.3690308,5.369022 0 0 1 2.18743,-0.638139 z m -44.04166,53.679221 a 14.867556,13.836687 0 0 1 6.8331,1.440531 l -19.00548,20.034267 a 14.867556,13.836687 0 0 1 1.25075,-16.796958 14.867556,13.836687 0 0 1 10.92163,-4.67784 z" />
    <path d="M 44.4008,199.93273 A 66.520535,67.825366 0 0 0 89.26149,179.32136 66.520535,67.825366 0 0 0 100,100 l -88.127709,92.93206 a 66.520535,67.825366 0 0 0 32.528509,7.00067 z m -5.86313,-10.68302 a 5.3690308,5.369022 0 0 1 -5.08513,-2.78007 5.3690308,5.369022 0 0 1 2.11973,-7.27923 5.3690308,5.369022 0 0 1 7.28588,2.09754 l -4.69448,2.60583 4.72667,-2.54701 a 5.3690308,5.369022 0 0 1 -2.16524,7.2648 5.3690308,5.369022 0 0 1 -2.18743,0.63814 z m 44.04166,-53.67922 a 14.867556,13.836687 0 0 1 -6.8331,-1.44053 l 19.00548,-20.03427 a 14.867556,13.836687 0 0 1 -1.25075,16.79696 14.867556,13.836687 0 0 1 -10.92163,4.67784 z" />
  </g>
</svg>
